<?xml version="1.0" encoding="UTF-8"?>
<!DOCTYPE svg PUBLIC "-//W3C//DTD SVG 1.1//EN" "http://www.w3.org/Graphics/SVG/1.1/DTD/svg11.dtd">
<svg xmlns="http://www.w3.org/2000/svg" version="1.1" width="500px" height="500px" style="shape-rendering:geometricPrecision; text-rendering:geometricPrecision; image-rendering:optimizeQuality; fill-rule:evenodd; clip-rule:evenodd" xmlns:xlink="http://www.w3.org/1999/xlink">
<g><path style="opacity:1" fill="#f3f3f3" d="M -0.5,-0.5 C 166.167,-0.5 332.833,-0.5 499.5,-0.5C 499.5,166.167 499.5,332.833 499.5,499.5C 332.833,499.5 166.167,499.5 -0.5,499.5C -0.5,332.833 -0.5,166.167 -0.5,-0.5 Z"/></g>
<g><path style="opacity:1" fill="#3c3a38" d="M 192.5,266.5 C 183.833,266.5 175.167,266.5 166.5,266.5C 150.561,218.849 133.727,171.516 116,124.5C 111.567,119.844 106.067,117.177 99.5,116.5C 122.833,115.167 146.167,115.167 169.5,116.5C 164.868,117.328 160.202,117.828 155.5,118C 148.474,119.878 145.974,124.378 148,131.5C 161.527,170.414 174.861,209.414 188,248.5C 189.696,254.487 191.196,260.487 192.5,266.5 Z"/></g>
<g><path style="opacity:1" fill="#464443" d="M 166.5,266.5 C 175.167,266.5 183.833,266.5 192.5,266.5C 207.936,220.519 222.603,174.186 236.5,127.5C 235.642,121.81 232.308,118.643 226.5,118C 219.476,117.831 212.476,117.331 205.5,116.5C 225.167,115.167 244.833,115.167 264.5,116.5C 252.141,115.253 243.641,120.253 239,131.5C 224.191,176.759 209.691,222.093 195.5,267.5C 185.652,267.827 175.986,267.494 166.5,266.5 Z"/></g>
<g><path style="opacity:1" fill="#3b3937" d="M 368.5,266.5 C 359.651,266.826 350.984,266.493 342.5,265.5C 345.249,249.456 345.082,233.456 342,217.5C 338.814,202.648 329.647,194.481 314.5,193C 307.842,192.5 301.175,192.334 294.5,192.5C 293.502,216.994 293.169,241.661 293.5,266.5C 284.5,266.5 275.5,266.5 266.5,266.5C 266.667,245.497 266.5,224.497 266,203.5C 263.668,197.836 259.501,194.336 253.5,193C 250.118,192.824 246.785,192.324 243.5,191.5C 269.494,190.333 295.494,190.167 321.5,191C 361.648,194.124 378.815,215.624 373,255.5C 371.962,259.468 370.462,263.135 368.5,266.5 Z"/></g>
<g><path style="opacity:1" fill="#565553" d="M 294.5,192.5 C 294.5,217.5 294.5,242.5 294.5,267.5C 284.985,267.827 275.652,267.494 266.5,266.5C 275.5,266.5 284.5,266.5 293.5,266.5C 293.169,241.661 293.502,216.994 294.5,192.5 Z"/></g>
<g><path style="opacity:1" fill="#6c6b69" d="M 342.5,265.5 C 350.984,266.493 359.651,266.826 368.5,266.5C 359.658,267.822 350.658,267.822 341.5,266.5C 341.624,265.893 341.957,265.56 342.5,265.5 Z"/></g>
<g><path style="opacity:1" fill="#ac9b90" d="M 283.5,282.5 C 288.824,279.235 294.491,278.735 300.5,281C 301.951,286.119 300.285,290.119 295.5,293C 292.285,294.774 288.952,296.274 285.5,297.5C 284.167,299.833 282.833,302.167 281.5,304.5C 281.167,304.333 280.833,304.167 280.5,304C 282.016,302.103 282.683,299.936 282.5,297.5C 281.5,297.5 280.5,297.5 279.5,297.5C 279.633,294.104 280.633,293.771 282.5,296.5C 283.392,292.153 285.058,288.153 287.5,284.5C 287.833,284.667 288.167,284.833 288.5,285C 286.387,288.173 285.387,291.673 285.5,295.5C 293.966,294.368 298.633,289.702 299.5,281.5C 294.13,281.392 288.797,281.725 283.5,282.5 Z"/></g>
<g><path style="opacity:1" fill="#a8968a" d="M 283.5,282.5 C 281.337,284.083 279.004,285.416 276.5,286.5C 278.052,283.888 280.386,282.555 283.5,282.5 Z"/></g>
<g><path style="opacity:1" fill="#aa988d" d="M 352.5,294.5 C 353.928,291.988 354.428,289.322 354,286.5C 353,288.833 352,291.167 351,293.5C 350.494,290.326 351.328,287.493 353.5,285C 354.448,284.517 355.448,284.351 356.5,284.5C 356.514,288.475 355.181,291.808 352.5,294.5 Z"/></g>
<g><path style="opacity:1" fill="#a59185" d="M 276.5,286.5 C 274.82,288.527 273.653,290.861 273,293.5C 272.08,290.006 273.246,287.673 276.5,286.5 Z"/></g>
<g><path style="opacity:1" fill="#aa978c" d="M 122.5,293.5 C 123.987,289.106 124.654,284.773 124.5,280.5C 125.655,283.446 125.821,286.446 125,289.5C 124.8,291.32 123.966,292.653 122.5,293.5 Z"/></g>
<g><path style="opacity:1" fill="#a79488" d="M 162.5,299.5 C 160.983,299.489 159.816,298.823 159,297.5C 157.955,298.373 157.122,299.373 156.5,300.5C 154.95,301.441 153.284,302.107 151.5,302.5C 154.788,299.551 158.121,296.551 161.5,293.5C 161.833,293.833 162.167,294.167 162.5,294.5C 161.833,295.167 161.167,295.833 160.5,296.5C 161.193,297.518 161.859,298.518 162.5,299.5 Z"/></g>
<g><path style="opacity:1" fill="#a49084" d="M 177.5,300.5 C 174.832,300.834 172.832,302.167 171.5,304.5C 170.833,303.5 170.167,302.5 169.5,301.5C 165.701,303.422 161.701,303.922 157.5,303C 156.748,302.329 156.414,301.496 156.5,300.5C 159.225,303.47 161.225,303.137 162.5,299.5C 163.268,300.263 163.768,301.263 164,302.5C 165.816,301.671 167.649,300.837 169.5,300C 171.721,295.318 173.721,290.485 175.5,285.5C 176.325,284.614 177.325,284.281 178.5,284.5C 178.938,287.893 178.105,290.893 176,293.5C 175.833,293.167 175.667,292.833 175.5,292.5C 176.752,290.265 177.252,287.931 177,285.5C 174.513,290.116 173.013,294.783 172.5,299.5C 174.215,299.595 175.881,299.928 177.5,300.5 Z"/></g>
<g><path style="opacity:1" fill="#e8e5e3" d="M 162.5,299.5 C 161.225,303.137 159.225,303.47 156.5,300.5C 157.122,299.373 157.955,298.373 159,297.5C 159.816,298.823 160.983,299.489 162.5,299.5 Z"/></g>
<g><path style="opacity:1" fill="#a79489" d="M 122.5,293.5 C 119.713,301.62 114.047,305.287 105.5,304.5C 106.732,297.064 108.232,289.73 110,282.5C 104.3,281.784 100.467,284.284 98.5,290C 99.5597,292.251 100.393,294.418 101,296.5C 95.5521,289.519 97.0521,284.353 105.5,281C 107.441,280.257 109.274,280.424 111,281.5C 111.667,283.833 111.667,286.167 111,288.5C 108.787,293.304 107.287,298.304 106.5,303.5C 109.271,303.579 111.937,303.079 114.5,302C 117.399,299.271 120.066,296.438 122.5,293.5 Z"/></g>
<g><path style="opacity:1" fill="#ab998e" d="M 184.5,302.5 C 186.456,300.886 188.456,299.219 190.5,297.5C 191.167,298.167 191.833,298.833 192.5,299.5C 193.768,298.572 195.101,298.405 196.5,299C 198.342,302.106 201.008,303.106 204.5,302C 207.58,299.71 210.747,297.543 214,295.5C 214.001,301.509 216.834,303.676 222.5,302C 225.102,301.117 227.269,299.617 229,297.5C 229.098,299.619 229.931,301.286 231.5,302.5C 232.988,300.851 233.988,298.851 234.5,296.5C 235.5,296.833 236.167,297.5 236.5,298.5C 235.289,299.72 235.289,300.887 236.5,302C 234.464,302.454 232.63,303.287 231,304.5C 229.523,303.556 228.523,302.223 228,300.5C 223.483,304.982 218.817,305.315 214,301.5C 212.736,303.607 210.903,304.607 208.5,304.5C 208.649,303.448 208.483,302.448 208,301.5C 203.26,305.725 198.926,305.392 195,300.5C 192.942,301.112 191.109,302.112 189.5,303.5C 188.808,302.975 188.308,302.308 188,301.5C 186.989,302.337 185.822,302.67 184.5,302.5 Z"/></g>
<g><path style="opacity:1" fill="#eae7e5" d="M 211.5,298.5 C 212.334,300.263 211.834,301.93 210,303.5C 209.387,301.505 209.887,299.838 211.5,298.5 Z"/></g>
<g><path style="opacity:1" fill="#a8968a" d="M 250.5,303.5 C 248.956,303.297 247.622,302.63 246.5,301.5C 245.232,302.428 243.899,302.595 242.5,302C 245.102,301.117 247.269,299.617 249,297.5C 249.315,299.586 249.815,301.586 250.5,303.5 Z"/></g>
<g><path style="opacity:1" fill="#a9978c" d="M 257.5,302.5 C 259.355,300.967 261.188,299.3 263,297.5C 262.73,300.596 260.897,302.263 257.5,302.5 Z"/></g>
<g><path style="opacity:1" fill="#ac9b90" d="M 144.5,303.5 C 142.956,303.297 141.622,302.63 140.5,301.5C 136.017,305.286 131.683,305.286 127.5,301.5C 126.167,302.5 124.833,303.5 123.5,304.5C 120.884,302.443 121.051,300.443 124,298.5C 124,299.833 124,301.167 124,302.5C 125.353,301.315 126.52,299.981 127.5,298.5C 132.728,303.789 137.895,303.455 143,297.5C 143.315,299.586 143.815,301.586 144.5,303.5 Z"/></g>
<g><path style="opacity:1" fill="#a38f83" d="M 177.5,300.5 C 179.588,301.939 181.921,302.606 184.5,302.5C 182.712,303.622 180.712,303.789 178.5,303C 177.748,302.329 177.414,301.496 177.5,300.5 Z"/></g>
<g><path style="opacity:1" fill="#ab998e" d="M 298.5,302.5 C 297.85,302.196 297.183,301.863 296.5,301.5C 291.383,305.859 289.883,304.859 292,298.5C 293.133,296.789 294.633,296.289 296.5,297C 293.606,297.869 292.439,299.702 293,302.5C 295.255,297.41 297.088,297.41 298.5,302.5 Z"/></g>
<g><path style="opacity:1" fill="#a9978b" d="M 298.5,302.5 C 303.9,303.215 308.4,301.548 312,297.5C 312.79,299.79 314.124,300.123 316,298.5C 318.104,300.279 320.438,301.612 323,302.5C 327.28,300.391 331.446,298.058 335.5,295.5C 337.994,295.622 338.661,296.622 337.5,298.5C 334.736,296.298 332.736,297.131 331.5,301C 332.466,302.734 333.966,303.568 336,303.5C 340.077,303.086 343.91,301.919 347.5,300C 348.717,298.352 349.55,296.519 350,294.5C 350.77,295.598 351.603,295.598 352.5,294.5C 351.178,296.311 350.678,298.311 351,300.5C 351.725,299.941 352.558,299.608 353.5,299.5C 355.5,300.5 357.5,301.5 359.5,302.5C 364.027,300.806 368.193,298.473 372,295.5C 372.001,301.509 374.834,303.676 380.5,302C 382.587,301.208 384.421,300.041 386,298.5C 386.333,294.833 386.667,291.167 387,287.5C 387.732,285.077 389.232,283.91 391.5,284C 392.188,288.325 391.354,292.491 389,296.5C 387.686,300.181 388.853,302.514 392.5,303.5C 395.946,302.611 398.946,300.944 401.5,298.5C 401.833,298.667 402.167,298.833 402.5,299C 399.101,303.203 394.767,304.87 389.5,304C 388.382,302.926 387.382,301.76 386.5,300.5C 383.862,302.603 380.862,303.937 377.5,304.5C 375.303,304.152 373.47,303.152 372,301.5C 370.736,303.607 368.903,304.607 366.5,304.5C 366.719,303.325 366.386,302.325 365.5,301.5C 361.16,304.439 357.16,304.106 353.5,300.5C 351.851,301.648 350.351,302.981 349,304.5C 348.751,303.376 348.251,302.376 347.5,301.5C 342.477,304.236 337.144,305.07 331.5,304C 330.667,303.167 329.833,302.333 329,301.5C 327.023,302.905 324.857,303.905 322.5,304.5C 320.215,303.386 318.048,302.053 316,300.5C 314.343,301.484 312.677,302.484 311,303.5C 310.667,302.5 310.333,301.5 310,300.5C 306.443,304.52 302.61,305.186 298.5,302.5 Z"/></g>
<g><path style="opacity:1" fill="#eae7e5" d="M 369.5,298.5 C 370.334,300.263 369.834,301.93 368,303.5C 367.387,301.505 367.887,299.838 369.5,298.5 Z"/></g>
<g><path style="opacity:1" fill="#eeeceb" d="M 389.5,285.5 C 390.358,288.82 389.858,292.153 388,295.5C 387.537,292.02 388.037,288.686 389.5,285.5 Z"/></g>
<g><path style="opacity:1" fill="#ab998e" d="M 151.5,302.5 C 150.688,303.993 149.355,304.66 147.5,304.5C 146.274,304.48 145.274,304.147 144.5,303.5C 146.861,303.326 149.194,302.993 151.5,302.5 Z"/></g>
<g><path style="opacity:1" fill="#ab998e" d="M 257.5,302.5 C 256.688,303.993 255.355,304.66 253.5,304.5C 252.274,304.48 251.274,304.147 250.5,303.5C 252.861,303.326 255.194,302.993 257.5,302.5 Z"/></g>
<g><path style="opacity:1" fill="#3b3937" d="M 266.5,316.5 C 275.833,316.5 285.167,316.5 294.5,316.5C 294.061,328.909 294.561,341.242 296,353.5C 297.765,356.473 300.265,358.64 303.5,360C 308.479,360.923 313.479,361.756 318.5,362.5C 293.5,363.833 268.5,363.833 243.5,362.5C 248.631,361.875 253.631,360.708 258.5,359C 262.49,357.01 264.99,353.843 266,349.5C 266.5,338.505 266.667,327.505 266.5,316.5 Z"/></g>
</svg>
