<?xml version="1.0" encoding="UTF-8"?>
<svg xmlns="http://www.w3.org/2000/svg" xmlns:xlink="http://www.w3.org/1999/xlink" width="50px" height="50px" viewBox="0 0 50 50" version="1.1">
<g id="surface1">
<path style=" stroke:none;fill-rule:evenodd;fill:rgb(95.294118%,95.294118%,95.294118%);fill-opacity:1;" d="M -0.0507812 -0.0507812 C 16.617188 -0.0507812 33.285156 -0.0507812 49.949219 -0.0507812 C 49.949219 16.617188 49.949219 33.285156 49.949219 49.949219 C 33.285156 49.949219 16.617188 49.949219 -0.0507812 49.949219 C -0.0507812 33.285156 -0.0507812 16.617188 -0.0507812 -0.0507812 Z M -0.0507812 -0.0507812 "/>
<path style=" stroke:none;fill-rule:evenodd;fill:rgb(23.529412%,22.745098%,21.960784%);fill-opacity:1;" d="M 19.25 26.648438 C 18.382812 26.648438 17.515625 26.648438 16.648438 26.648438 C 15.054688 21.886719 13.371094 17.152344 11.601562 12.449219 C 11.15625 11.984375 10.605469 11.71875 9.949219 11.648438 C 12.285156 11.515625 14.617188 11.515625 16.949219 11.648438 C 16.488281 11.734375 16.019531 11.78125 15.550781 11.800781 C 14.847656 11.988281 14.597656 12.4375 14.800781 13.148438 C 16.152344 17.042969 17.484375 20.941406 18.800781 24.851562 C 18.96875 25.449219 19.121094 26.046875 19.25 26.648438 Z M 19.25 26.648438 "/>
<path style=" stroke:none;fill-rule:evenodd;fill:rgb(27.45098%,26.666667%,26.27451%);fill-opacity:1;" d="M 16.648438 26.648438 C 17.515625 26.648438 18.382812 26.648438 19.25 26.648438 C 20.792969 22.050781 22.261719 17.417969 23.648438 12.75 C 23.5625 12.179688 23.230469 11.863281 22.648438 11.800781 C 21.949219 11.78125 21.246094 11.734375 20.550781 11.648438 C 22.515625 11.515625 24.484375 11.515625 26.449219 11.648438 C 25.214844 11.523438 24.363281 12.023438 23.898438 13.148438 C 22.417969 17.675781 20.96875 22.210938 19.550781 26.75 C 18.566406 26.78125 17.597656 26.75 16.648438 26.648438 Z M 16.648438 26.648438 "/>
<path style=" stroke:none;fill-rule:evenodd;fill:rgb(23.137255%,22.352941%,21.568627%);fill-opacity:1;" d="M 36.851562 26.648438 C 35.964844 26.683594 35.097656 26.648438 34.25 26.550781 C 34.523438 24.945312 34.507812 23.34375 34.199219 21.75 C 33.882812 20.265625 32.964844 19.449219 31.449219 19.300781 C 30.785156 19.25 30.117188 19.234375 29.449219 19.25 C 29.351562 21.699219 29.316406 24.167969 29.351562 26.648438 C 28.449219 26.648438 27.550781 26.648438 26.648438 26.648438 C 26.667969 24.550781 26.648438 22.449219 26.601562 20.351562 C 26.367188 19.785156 25.949219 19.433594 25.351562 19.300781 C 25.011719 19.28125 24.679688 19.230469 24.351562 19.148438 C 26.949219 19.035156 29.550781 19.015625 32.148438 19.101562 C 36.164062 19.414062 37.882812 21.5625 37.300781 25.550781 C 37.195312 25.945312 37.046875 26.3125 36.851562 26.648438 Z M 36.851562 26.648438 "/>
<path style=" stroke:none;fill-rule:evenodd;fill:rgb(33.72549%,33.333333%,32.54902%);fill-opacity:1;" d="M 29.449219 19.25 C 29.449219 21.75 29.449219 24.25 29.449219 26.75 C 28.5 26.78125 27.566406 26.75 26.648438 26.648438 C 27.550781 26.648438 28.449219 26.648438 29.351562 26.648438 C 29.316406 24.167969 29.351562 21.699219 29.449219 19.25 Z M 29.449219 19.25 "/>
<path style=" stroke:none;fill-rule:evenodd;fill:rgb(42.352941%,41.960784%,41.176471%);fill-opacity:1;" d="M 34.25 26.550781 C 35.097656 26.648438 35.964844 26.683594 36.851562 26.648438 C 35.964844 26.78125 35.066406 26.78125 34.148438 26.648438 C 34.164062 26.589844 34.195312 26.554688 34.25 26.550781 Z M 34.25 26.550781 "/>
<path style=" stroke:none;fill-rule:evenodd;fill:rgb(67.45098%,60.784314%,56.470588%);fill-opacity:1;" d="M 28.351562 28.25 C 28.882812 27.921875 29.449219 27.875 30.050781 28.101562 C 30.195312 28.613281 30.027344 29.011719 29.550781 29.300781 C 29.226562 29.476562 28.894531 29.628906 28.550781 29.75 C 28.417969 29.984375 28.285156 30.214844 28.148438 30.449219 C 28.117188 30.433594 28.082031 30.417969 28.050781 30.398438 C 28.203125 30.210938 28.269531 29.992188 28.25 29.75 C 28.148438 29.75 28.050781 29.75 27.949219 29.75 C 27.964844 29.410156 28.0625 29.378906 28.25 29.648438 C 28.339844 29.214844 28.503906 28.816406 28.75 28.449219 C 28.785156 28.464844 28.816406 28.484375 28.851562 28.5 C 28.640625 28.816406 28.539062 29.167969 28.550781 29.550781 C 29.398438 29.4375 29.863281 28.96875 29.949219 28.148438 C 29.414062 28.140625 28.878906 28.171875 28.351562 28.25 Z M 28.351562 28.25 "/>
<path style=" stroke:none;fill-rule:evenodd;fill:rgb(65.882353%,58.823529%,54.117647%);fill-opacity:1;" d="M 28.351562 28.25 C 28.132812 28.410156 27.902344 28.542969 27.648438 28.648438 C 27.804688 28.390625 28.039062 28.253906 28.351562 28.25 Z M 28.351562 28.25 "/>
<path style=" stroke:none;fill-rule:evenodd;fill:rgb(66.666667%,59.607843%,55.294118%);fill-opacity:1;" d="M 35.25 29.449219 C 35.394531 29.199219 35.441406 28.933594 35.398438 28.648438 C 35.300781 28.882812 35.199219 29.117188 35.101562 29.351562 C 35.050781 29.03125 35.132812 28.75 35.351562 28.5 C 35.445312 28.453125 35.542969 28.433594 35.648438 28.449219 C 35.652344 28.847656 35.519531 29.179688 35.25 29.449219 Z M 35.25 29.449219 "/>
<path style=" stroke:none;fill-rule:evenodd;fill:rgb(64.705882%,56.862745%,52.156863%);fill-opacity:1;" d="M 27.648438 28.648438 C 27.480469 28.851562 27.367188 29.085938 27.300781 29.351562 C 27.207031 29 27.324219 28.765625 27.648438 28.648438 Z M 27.648438 28.648438 "/>
<path style=" stroke:none;fill-rule:evenodd;fill:rgb(66.666667%,59.215686%,54.901961%);fill-opacity:1;" d="M 12.25 29.351562 C 12.398438 28.910156 12.464844 28.476562 12.449219 28.050781 C 12.566406 28.34375 12.582031 28.644531 12.5 28.949219 C 12.480469 29.132812 12.398438 29.265625 12.25 29.351562 Z M 12.25 29.351562 "/>
<path style=" stroke:none;fill-rule:evenodd;fill:rgb(65.490196%,58.039216%,53.333333%);fill-opacity:1;" d="M 16.25 29.949219 C 16.097656 29.949219 15.980469 29.882812 15.898438 29.75 C 15.796875 29.835938 15.710938 29.9375 15.648438 30.050781 C 15.496094 30.144531 15.328125 30.210938 15.148438 30.25 C 15.480469 29.957031 15.8125 29.65625 16.148438 29.351562 C 16.183594 29.382812 16.214844 29.417969 16.25 29.449219 C 16.183594 29.515625 16.117188 29.582031 16.050781 29.648438 C 16.121094 29.75 16.1875 29.851562 16.25 29.949219 Z M 16.25 29.949219 "/>
<path style=" stroke:none;fill-rule:evenodd;fill:rgb(64.313725%,56.470588%,51.764706%);fill-opacity:1;" d="M 17.75 30.050781 C 17.484375 30.082031 17.28125 30.214844 17.148438 30.449219 C 17.082031 30.351562 17.015625 30.25 16.949219 30.148438 C 16.570312 30.34375 16.171875 30.390625 15.75 30.300781 C 15.675781 30.234375 15.640625 30.148438 15.648438 30.050781 C 15.921875 30.347656 16.121094 30.3125 16.25 29.949219 C 16.328125 30.027344 16.375 30.125 16.398438 30.25 C 16.582031 30.167969 16.765625 30.082031 16.949219 30 C 17.171875 29.53125 17.371094 29.046875 17.550781 28.550781 C 17.632812 28.460938 17.734375 28.429688 17.851562 28.449219 C 17.894531 28.789062 17.808594 29.089844 17.601562 29.351562 C 17.582031 29.316406 17.566406 29.285156 17.550781 29.25 C 17.675781 29.027344 17.726562 28.792969 17.699219 28.550781 C 17.453125 29.011719 17.300781 29.476562 17.25 29.949219 C 17.421875 29.960938 17.589844 29.992188 17.75 30.050781 Z M 17.75 30.050781 "/>
<path style=" stroke:none;fill-rule:evenodd;fill:rgb(90.980392%,89.803922%,89.019608%);fill-opacity:1;" d="M 16.25 29.949219 C 16.121094 30.3125 15.921875 30.347656 15.648438 30.050781 C 15.710938 29.9375 15.796875 29.835938 15.898438 29.75 C 15.980469 29.882812 16.097656 29.949219 16.25 29.949219 Z M 16.25 29.949219 "/>
<path style=" stroke:none;fill-rule:evenodd;fill:rgb(65.490196%,58.039216%,53.72549%);fill-opacity:1;" d="M 12.25 29.351562 C 11.972656 30.160156 11.40625 30.527344 10.550781 30.449219 C 10.671875 29.707031 10.824219 28.972656 11 28.25 C 10.429688 28.179688 10.046875 28.429688 9.851562 29 C 9.957031 29.226562 10.039062 29.441406 10.101562 29.648438 C 9.554688 28.953125 9.707031 28.433594 10.550781 28.101562 C 10.742188 28.027344 10.925781 28.042969 11.101562 28.148438 C 11.167969 28.382812 11.167969 28.617188 11.101562 28.851562 C 10.878906 29.332031 10.730469 29.832031 10.648438 30.351562 C 10.925781 30.359375 11.195312 30.308594 11.449219 30.199219 C 11.738281 29.925781 12.007812 29.644531 12.25 29.351562 Z M 12.25 29.351562 "/>
<path style=" stroke:none;fill-rule:evenodd;fill:rgb(67.058824%,60%,55.686275%);fill-opacity:1;" d="M 18.449219 30.25 C 18.644531 30.089844 18.84375 29.921875 19.050781 29.75 C 19.117188 29.816406 19.183594 29.882812 19.25 29.949219 C 19.375 29.855469 19.511719 29.839844 19.648438 29.898438 C 19.835938 30.210938 20.101562 30.3125 20.449219 30.199219 C 20.757812 29.972656 21.074219 29.753906 21.398438 29.550781 C 21.398438 30.152344 21.683594 30.367188 22.25 30.199219 C 22.511719 30.113281 22.726562 29.960938 22.898438 29.75 C 22.910156 29.960938 22.992188 30.128906 23.148438 30.25 C 23.296875 30.085938 23.398438 29.886719 23.449219 29.648438 C 23.550781 29.683594 23.617188 29.75 23.648438 29.851562 C 23.527344 29.972656 23.527344 30.089844 23.648438 30.199219 C 23.445312 30.246094 23.261719 30.328125 23.101562 30.449219 C 22.953125 30.355469 22.851562 30.222656 22.800781 30.050781 C 22.347656 30.5 21.882812 30.53125 21.398438 30.148438 C 21.273438 30.359375 21.089844 30.460938 20.851562 30.449219 C 20.863281 30.34375 20.847656 30.246094 20.800781 30.148438 C 20.324219 30.574219 19.894531 30.539062 19.5 30.050781 C 19.292969 30.109375 19.109375 30.210938 18.949219 30.351562 C 18.878906 30.296875 18.832031 30.230469 18.800781 30.148438 C 18.699219 30.234375 18.582031 30.265625 18.449219 30.25 Z M 18.449219 30.25 "/>
<path style=" stroke:none;fill-rule:evenodd;fill:rgb(91.764706%,90.588235%,89.803922%);fill-opacity:1;" d="M 21.148438 29.851562 C 21.234375 30.027344 21.183594 30.191406 21 30.351562 C 20.9375 30.152344 20.988281 29.984375 21.148438 29.851562 Z M 21.148438 29.851562 "/>
<path style=" stroke:none;fill-rule:evenodd;fill:rgb(65.882353%,58.823529%,54.117647%);fill-opacity:1;" d="M 25.050781 30.351562 C 24.894531 30.328125 24.761719 30.261719 24.648438 30.148438 C 24.523438 30.242188 24.390625 30.257812 24.25 30.199219 C 24.511719 30.113281 24.726562 29.960938 24.898438 29.75 C 24.929688 29.957031 24.980469 30.160156 25.050781 30.351562 Z M 25.050781 30.351562 "/>
<path style=" stroke:none;fill-rule:evenodd;fill:rgb(66.27451%,59.215686%,54.901961%);fill-opacity:1;" d="M 25.75 30.25 C 25.933594 30.097656 26.117188 29.929688 26.300781 29.75 C 26.273438 30.058594 26.089844 30.226562 25.75 30.25 Z M 25.75 30.25 "/>
<path style=" stroke:none;fill-rule:evenodd;fill:rgb(67.45098%,60.784314%,56.470588%);fill-opacity:1;" d="M 14.449219 30.351562 C 14.296875 30.328125 14.164062 30.261719 14.050781 30.148438 C 13.601562 30.527344 13.167969 30.527344 12.75 30.148438 C 12.617188 30.25 12.484375 30.351562 12.351562 30.449219 C 12.089844 30.246094 12.105469 30.042969 12.398438 29.851562 C 12.398438 29.984375 12.398438 30.117188 12.398438 30.25 C 12.535156 30.132812 12.652344 30 12.75 29.851562 C 13.273438 30.378906 13.789062 30.34375 14.300781 29.75 C 14.332031 29.957031 14.382812 30.160156 14.449219 30.351562 Z M 14.449219 30.351562 "/>
<path style=" stroke:none;fill-rule:evenodd;fill:rgb(63.921569%,56.078431%,51.372549%);fill-opacity:1;" d="M 17.75 30.050781 C 17.957031 30.195312 18.191406 30.261719 18.449219 30.25 C 18.269531 30.363281 18.070312 30.378906 17.851562 30.300781 C 17.773438 30.234375 17.742188 30.148438 17.75 30.050781 Z M 17.75 30.050781 "/>
<path style=" stroke:none;fill-rule:evenodd;fill:rgb(67.058824%,60%,55.686275%);fill-opacity:1;" d="M 29.851562 30.25 C 29.785156 30.21875 29.71875 30.1875 29.648438 30.148438 C 29.136719 30.585938 28.988281 30.484375 29.199219 29.851562 C 29.3125 29.679688 29.464844 29.628906 29.648438 29.699219 C 29.359375 29.785156 29.242188 29.96875 29.300781 30.25 C 29.527344 29.742188 29.707031 29.742188 29.851562 30.25 Z M 29.851562 30.25 "/>
<path style=" stroke:none;fill-rule:evenodd;fill:rgb(66.27451%,59.215686%,54.509804%);fill-opacity:1;" d="M 29.851562 30.25 C 30.390625 30.320312 30.839844 30.15625 31.199219 29.75 C 31.277344 29.980469 31.414062 30.011719 31.601562 29.851562 C 31.808594 30.027344 32.042969 30.160156 32.300781 30.25 C 32.726562 30.039062 33.144531 29.804688 33.550781 29.550781 C 33.800781 29.5625 33.867188 29.664062 33.75 29.851562 C 33.472656 29.628906 33.273438 29.714844 33.148438 30.101562 C 33.246094 30.273438 33.398438 30.355469 33.601562 30.351562 C 34.007812 30.308594 34.390625 30.191406 34.75 30 C 34.871094 29.835938 34.953125 29.652344 35 29.449219 C 35.078125 29.558594 35.160156 29.558594 35.25 29.449219 C 35.117188 29.632812 35.066406 29.832031 35.101562 30.050781 C 35.171875 29.992188 35.253906 29.960938 35.351562 29.949219 C 35.550781 30.050781 35.75 30.148438 35.949219 30.25 C 36.402344 30.082031 36.820312 29.847656 37.199219 29.550781 C 37.199219 30.152344 37.484375 30.367188 38.050781 30.199219 C 38.257812 30.121094 38.441406 30.003906 38.601562 29.851562 C 38.632812 29.484375 38.667969 29.117188 38.699219 28.75 C 38.773438 28.507812 38.921875 28.390625 39.148438 28.398438 C 39.21875 28.832031 39.136719 29.25 38.898438 29.648438 C 38.769531 30.019531 38.886719 30.25 39.25 30.351562 C 39.59375 30.261719 39.894531 30.09375 40.148438 29.851562 C 40.183594 29.867188 40.214844 29.882812 40.25 29.898438 C 39.910156 30.320312 39.476562 30.488281 38.949219 30.398438 C 38.839844 30.292969 38.738281 30.175781 38.648438 30.050781 C 38.386719 30.261719 38.085938 30.394531 37.75 30.449219 C 37.53125 30.414062 37.347656 30.316406 37.199219 30.148438 C 37.074219 30.359375 36.890625 30.460938 36.648438 30.449219 C 36.671875 30.332031 36.636719 30.234375 36.550781 30.148438 C 36.117188 30.445312 35.714844 30.410156 35.351562 30.050781 C 35.183594 30.164062 35.035156 30.296875 34.898438 30.449219 C 34.875 30.335938 34.824219 30.238281 34.75 30.148438 C 34.246094 30.421875 33.714844 30.507812 33.148438 30.398438 C 33.066406 30.316406 32.984375 30.234375 32.898438 30.148438 C 32.703125 30.289062 32.484375 30.390625 32.25 30.449219 C 32.023438 30.339844 31.804688 30.207031 31.601562 30.050781 C 31.433594 30.148438 31.269531 30.25 31.101562 30.351562 C 31.066406 30.25 31.035156 30.148438 31 30.050781 C 30.644531 30.453125 30.261719 30.519531 29.851562 30.25 Z M 29.851562 30.25 "/>
<path style=" stroke:none;fill-rule:evenodd;fill:rgb(91.764706%,90.588235%,89.803922%);fill-opacity:1;" d="M 36.949219 29.851562 C 37.035156 30.027344 36.984375 30.191406 36.800781 30.351562 C 36.738281 30.152344 36.789062 29.984375 36.949219 29.851562 Z M 36.949219 29.851562 "/>
<path style=" stroke:none;fill-rule:evenodd;fill:rgb(93.333333%,92.54902%,92.156863%);fill-opacity:1;" d="M 38.949219 28.550781 C 39.035156 28.882812 38.984375 29.214844 38.800781 29.550781 C 38.753906 29.203125 38.804688 28.867188 38.949219 28.550781 Z M 38.949219 28.550781 "/>
<path style=" stroke:none;fill-rule:evenodd;fill:rgb(67.058824%,60%,55.686275%);fill-opacity:1;" d="M 15.148438 30.25 C 15.070312 30.398438 14.933594 30.464844 14.75 30.449219 C 14.628906 30.449219 14.527344 30.414062 14.449219 30.351562 C 14.6875 30.332031 14.917969 30.300781 15.148438 30.25 Z M 15.148438 30.25 "/>
<path style=" stroke:none;fill-rule:evenodd;fill:rgb(67.058824%,60%,55.686275%);fill-opacity:1;" d="M 25.75 30.25 C 25.667969 30.398438 25.535156 30.464844 25.351562 30.449219 C 25.226562 30.449219 25.128906 30.414062 25.050781 30.351562 C 25.285156 30.332031 25.519531 30.300781 25.75 30.25 Z M 25.75 30.25 "/>
<path style=" stroke:none;fill-rule:evenodd;fill:rgb(23.137255%,22.352941%,21.568627%);fill-opacity:1;" d="M 26.648438 31.648438 C 27.582031 31.648438 28.515625 31.648438 29.449219 31.648438 C 29.40625 32.890625 29.457031 34.125 29.601562 35.351562 C 29.777344 35.648438 30.027344 35.863281 30.351562 36 C 30.847656 36.09375 31.347656 36.175781 31.851562 36.25 C 29.351562 36.382812 26.851562 36.382812 24.351562 36.25 C 24.863281 36.1875 25.363281 36.070312 25.851562 35.898438 C 26.25 35.699219 26.5 35.382812 26.601562 34.949219 C 26.648438 33.851562 26.667969 32.75 26.648438 31.648438 Z M 26.648438 31.648438 "/>
</g>
</svg>
